<svg width="40" height="40" viewBox="0 0 40 40" fill="none" xmlns="http://www.w3.org/2000/svg">
<g clip-path="url(#clip0_44_19818)">
<circle cx="20" cy="20" r="20" fill="#EADDFF"/>
<path d="M22 17.9V16.2C22.55 15.9667 23.1127 15.7917 23.688 15.675C24.2627 15.5583 24.8667 15.5 25.5 15.5C25.9333 15.5 26.3583 15.5333 26.775 15.6C27.1917 15.6667 27.6 15.75 28 15.85V17.45C27.6 17.3 27.196 17.1877 26.788 17.113C26.3793 17.0377 25.95 17 25.5 17C24.8667 17 24.2583 17.0793 23.675 17.238C23.0917 17.396 22.5333 17.6167 22 17.9ZM22 23.4V21.7C22.55 21.4667 23.1127 21.2917 23.688 21.175C24.2627 21.0583 24.8667 21 25.5 21C25.9333 21 26.3583 21.0333 26.775 21.1C27.1917 21.1667 27.6 21.25 28 21.35V22.95C27.6 22.8 27.196 22.6877 26.788 22.613C26.3793 22.5377 25.95 22.5 25.5 22.5C24.8667 22.5 24.2583 22.575 23.675 22.725C23.0917 22.875 22.5333 23.1 22 23.4ZM22 20.65V18.95C22.55 18.7167 23.1127 18.5417 23.688 18.425C24.2627 18.3083 24.8667 18.25 25.5 18.25C25.9333 18.25 26.3583 18.2833 26.775 18.35C27.1917 18.4167 27.6 18.5 28 18.6V20.2C27.6 20.05 27.196 19.9377 26.788 19.863C26.3793 19.7877 25.95 19.75 25.5 19.75C24.8667 19.75 24.2583 19.8293 23.675 19.988C23.0917 20.146 22.5333 20.3667 22 20.65ZM14.5 24C15.2833 24 16.046 24.0873 16.788 24.262C17.5293 24.4373 18.2667 24.7 19 25.05V15.2C18.3167 14.8 17.5917 14.5 16.825 14.3C16.0583 14.1 15.2833 14 14.5 14C13.9 14 13.3043 14.0583 12.713 14.175C12.121 14.2917 11.55 14.4667 11 14.7V24.6C11.5833 24.4 12.1627 24.25 12.738 24.15C13.3127 24.05 13.9 24 14.5 24ZM21 25.05C21.7333 24.7 22.471 24.4373 23.213 24.262C23.9543 24.0873 24.7167 24 25.5 24C26.1 24 26.6877 24.05 27.263 24.15C27.8377 24.25 28.4167 24.4 29 24.6V14.7C28.45 14.4667 27.8793 14.2917 27.288 14.175C26.696 14.0583 26.1 14 25.5 14C24.7167 14 23.9417 14.1 23.175 14.3C22.4083 14.5 21.6833 14.8 21 15.2V25.05ZM20 28C19.2 27.3667 18.3333 26.875 17.4 26.525C16.4667 26.175 15.5 26 14.5 26C13.8 26 13.1127 26.0917 12.438 26.275C11.7627 26.4583 11.1167 26.7167 10.5 27.05C10.15 27.2333 9.81267 27.225 9.488 27.025C9.16267 26.825 9 26.5333 9 26.15V14.1C9 13.9167 9.046 13.7417 9.138 13.575C9.22933 13.4083 9.36667 13.2833 9.55 13.2C10.3167 12.8 11.1167 12.5 11.95 12.3C12.7833 12.1 13.6333 12 14.5 12C15.4667 12 16.4127 12.125 17.338 12.375C18.2627 12.625 19.15 13 20 13.5C20.85 13 21.7377 12.625 22.663 12.375C23.5877 12.125 24.5333 12 25.5 12C26.3667 12 27.2167 12.1 28.05 12.3C28.8833 12.5 29.6833 12.8 30.45 13.2C30.6333 13.2833 30.771 13.4083 30.863 13.575C30.9543 13.7417 31 13.9167 31 14.1V26.15C31 26.5333 30.8377 26.825 30.513 27.025C30.1877 27.225 29.85 27.2333 29.5 27.05C28.8833 26.7167 28.2373 26.4583 27.562 26.275C26.8873 26.0917 26.2 26 25.5 26C24.5 26 23.5333 26.175 22.6 26.525C21.6667 26.875 20.8 27.3667 20 28Z" fill="#6750A4"/>
</g>
<defs>
<clipPath id="clip0_44_19818">
<rect width="40" height="40" fill="white"/>
</clipPath>
</defs>
</svg>
