<svg width="16" height="16" viewBox="0 0 16 16" fill="none" xmlns="http://www.w3.org/2000/svg">
<g id="Group 43">
<path id="Vector" d="M5.65188 0.911194C4.10467 1.43723 2.77036 2.43568 1.84494 3.75986C0.919512 5.08405 0.451755 6.66419 0.51037 8.26818C0.568985 9.87216 1.15088 11.4155 2.17059 12.6714C3.1903 13.9273 4.59407 14.8296 6.17571 15.2458C7.45798 15.5701 8.80142 15.5843 10.0906 15.2873C11.2584 15.0302 12.3381 14.4803 13.2239 13.6914C14.1458 12.8453 14.815 11.7689 15.1595 10.5779C15.5338 9.28273 15.6005 7.92075 15.3543 6.59644H8.1537V9.52383H12.3238C12.2405 9.99073 12.0619 10.4364 11.7987 10.834C11.5355 11.2317 11.1932 11.5733 10.7922 11.8382C10.2831 12.1685 9.70902 12.3906 9.107 12.4904C8.50326 12.6004 7.88398 12.6004 7.28024 12.4904C6.66827 12.3665 6.08938 12.119 5.5805 11.7635C4.76287 11.1963 4.14894 10.3905 3.82632 9.46099C3.49834 8.5141 3.49834 7.4876 3.82632 6.54071C4.05597 5.877 4.43561 5.27269 4.9369 4.77289C5.51056 4.19043 6.23684 3.77409 7.03605 3.56954C7.83526 3.36498 8.67651 3.38013 9.46752 3.61331C10.0855 3.79914 10.6505 4.12395 11.1177 4.56184C11.5879 4.10339 12.0572 3.64375 12.5258 3.18292C12.7678 2.93512 13.0315 2.69917 13.2698 2.44544C12.5567 1.79513 11.7197 1.28907 10.8067 0.956249C9.14415 0.364592 7.32497 0.348692 5.65188 0.911194Z" fill="#7C7C7C"/>
<path id="Vector_2" d="M5.65196 0.91116C7.32492 0.348276 9.14409 0.363757 10.8068 0.955029C11.72 1.29011 12.5566 1.7986 13.2687 2.45133C13.0268 2.70506 12.7715 2.9422 12.5247 3.18881C12.0553 3.64806 11.5863 4.10572 11.1177 4.56181C10.6506 4.12392 10.0856 3.7991 9.4676 3.61328C8.67686 3.37928 7.83563 3.36326 7.03621 3.56697C6.23679 3.77069 5.51007 4.18626 4.93577 4.76811C4.43448 5.26791 4.05484 5.87222 3.82519 6.53593L1.31732 4.63295C2.21499 2.88832 3.76924 1.55382 5.65196 0.91116Z" fill="#E33629"/>
<path id="Vector_3" d="M0.65184 6.51814C0.786536 5.86338 1.01033 5.22931 1.31722 4.63293L3.82509 6.54066C3.4971 7.48755 3.4971 8.51405 3.82509 9.46094C2.98953 10.0933 2.15358 10.7288 1.31722 11.3675C0.549191 9.86919 0.314956 8.16206 0.65184 6.51814Z" fill="#F8BD00"/>
<path id="Vector_4" d="M8.1538 6.59521H15.3544C15.6006 7.91953 15.5339 9.28151 15.1596 10.5767C14.8151 11.7676 14.1459 12.8441 13.224 13.6902C12.4146 13.0713 11.6017 12.4571 10.7923 11.8382C11.1936 11.5729 11.5361 11.231 11.7992 10.8329C12.0624 10.4348 12.2409 9.98875 12.3239 9.52143H8.1538C8.15259 8.54681 8.1538 7.57101 8.1538 6.59521Z" fill="#587DBD"/>
<path id="Vector_5" d="M1.3161 11.3675C2.15246 10.7351 2.98842 10.0996 3.82397 9.46094C4.14723 10.3907 4.76204 11.1966 5.58057 11.7635C6.09104 12.1173 6.67118 12.3628 7.28394 12.4844C7.88768 12.5944 8.50696 12.5944 9.1107 12.4844C9.71272 12.3846 10.2868 12.1625 10.7959 11.8323C11.6053 12.4512 12.4182 13.0653 13.2276 13.6843C12.3419 14.4736 11.2622 15.0239 10.0943 15.2813C8.80512 15.5784 7.46168 15.5641 6.17941 15.2398C5.16525 14.9745 4.21797 14.5066 3.39692 13.8657C2.52797 13.1894 1.8182 12.3373 1.3161 11.3675Z" fill="#319F43"/>
</g>
</svg>
