<svg width="264" height="111" viewBox="0 0 264 111" fill="none" xmlns="http://www.w3.org/2000/svg">
<g clip-path="url(#clip0_44_22754)">
<path d="M18.1132 94.0937L46.6415 9.97916L68.8302 16.9062L40.3019 101.021L18.1132 94.0937Z" fill="#D8BFFF"/>
<path d="M95.2453 10.9688H73.0566V100.031H95.2453V10.9688Z" fill="#D8BFFF"/>
<path d="M125.887 10.9688H102.642V100.031H125.887V10.9688Z" fill="#D8BFFF"/>
<path d="M68.6227 14.3528C67.7992 14.1232 66.8933 14.3528 66.3168 14.9653C66.3168 14.9653 66.2345 14.9653 66.2345 14.8887C66.1521 14.8887 66.1521 14.8122 66.0698 14.8122L48.6933 9.91288C48.611 9.91288 48.5286 9.91288 48.5286 9.83633C48.4463 9.83633 48.4463 9.83633 48.3639 9.83633C48.2816 9.07081 47.7051 8.38185 46.7992 8.07565C45.6463 7.76944 44.411 8.38185 44.0816 9.45357L16.0816 94.1192C15.7522 95.1909 16.411 96.3392 17.5639 96.6454C18.3874 96.875 19.2933 96.6454 19.8698 96.0329C19.8698 96.0329 19.9521 96.0329 19.9521 96.1095C20.0345 96.1095 20.0345 96.186 20.1169 96.186L37.4933 101.162C37.5757 101.162 37.658 101.162 37.658 101.238C37.7404 101.238 37.7404 101.238 37.8227 101.238C37.9051 102.004 38.4816 102.693 39.3874 102.999C40.5404 103.305 41.7757 102.693 42.1051 101.621L45.3992 91.7461L48.1992 83.2489L70.1051 16.9556C70.4345 15.8073 69.7757 14.6591 68.6227 14.3528ZM42.1051 87.6889L41.1992 90.5213L38.2345 99.5543C38.2345 99.5543 38.2345 99.5543 38.1521 99.5543H38.0698L34.7757 98.6357L40.0463 82.713C40.1286 82.4068 39.9639 82.1006 39.6345 82.0241C39.3051 81.9475 38.9757 82.1006 38.8933 82.3303C38.8933 82.3303 38.8933 82.3303 38.8933 82.4068L33.6227 98.3295L30.1639 97.3343L39.7169 68.3214C39.7992 68.0152 39.6345 67.709 39.3051 67.6325C39.2227 67.6325 39.1404 67.6325 39.058 67.6325C38.811 67.6325 38.6463 67.7856 38.5639 68.0152L29.011 97.0281L20.6933 94.655H20.611C20.611 94.655 20.611 94.655 20.5286 94.655L42.1874 29.1272L44.9874 20.63L47.9521 11.597C47.9521 11.597 47.9521 11.597 48.0345 11.597H48.1169L51.8227 12.6687L39.5521 49.7195C39.4698 50.0257 39.6345 50.3319 39.9639 50.4085C40.2933 50.485 40.6227 50.3319 40.7051 50.0257L52.9757 12.8218L56.4345 13.817L49.0227 36.1699C48.9404 36.3996 49.0227 36.6292 49.2698 36.7823C49.3521 36.7823 49.3521 36.8589 49.4345 36.8589C49.7639 36.9354 50.0933 36.7823 50.1757 36.4761L57.5874 14.1232L65.4933 16.3432H65.5757C65.5757 16.3432 65.5757 16.3432 65.658 16.3432L60.1404 33.0313L59.811 34.0265L42.1051 87.6889Z" fill="#6750A4"/>
<path d="M52.2353 43.8259C51.9059 43.7494 51.5765 43.9025 51.4941 44.1321C51.4941 44.1321 51.4941 44.1321 51.4941 44.2087L43.8353 67.2506C43.7529 67.5568 43.9176 67.863 44.2471 67.9396C44.5765 68.0161 44.9059 67.863 44.9882 67.5568L52.6471 44.5149C52.7294 44.2087 52.5647 43.9025 52.2353 43.8259Z" fill="#6750A4"/>
<path d="M95.4706 9.14825C94.5647 9.14825 93.8235 9.68411 93.4941 10.3731C93.4118 10.3731 93.4118 10.3731 93.3294 10.3731C93.2471 10.3731 93.1647 10.3731 93.1647 10.3731H75.0471C74.9647 10.3731 74.8823 10.3731 74.8823 10.3731C74.8 10.3731 74.8 10.3731 74.7176 10.3731C74.3882 9.68411 73.5647 9.14825 72.7412 9.14825C71.5059 9.14825 70.5176 10.0669 70.5176 11.2151V99.7848C70.5176 100.933 71.5059 101.852 72.7412 101.852C73.6471 101.852 74.3882 101.316 74.7176 100.627C74.8 100.627 74.8 100.627 74.8823 100.627C74.9647 100.627 75.0471 100.627 75.0471 100.627H93.1647C93.2471 100.627 93.3294 100.627 93.3294 100.627C93.4118 100.627 93.4118 100.627 93.4941 100.627C93.8235 101.316 94.6471 101.852 95.4706 101.852C96.7059 101.852 97.6941 100.933 97.6941 99.7848V89.4504V80.5705V30.3529V21.473V11.2151C97.6941 10.0669 96.7059 9.14825 95.4706 9.14825ZM93.3294 30.3529V80.5705V89.4504V98.8662C93.3294 98.8662 93.3294 98.8662 93.2471 98.8662H93.1647H89.7059V82.2546C89.7059 81.9484 89.4588 81.7188 89.1294 81.7188C88.8 81.7188 88.5529 81.9484 88.5529 82.2546C88.5529 82.2546 88.5529 82.2546 88.5529 82.3312V99.0193H84.9294V68.552C84.9294 68.2458 84.6823 68.0161 84.3529 68.0161C84.2706 68.0161 84.1882 68.0161 84.1059 68.0161C83.8588 68.0927 83.6941 68.2458 83.6941 68.4754C83.6941 68.4754 83.6941 68.4754 83.6941 68.552V98.9428H75.0471H74.9647C74.9647 98.9428 74.9647 98.9428 74.8823 98.9428V89.527V80.5705V30.3529V21.473V12.0572C74.8823 12.0572 74.8823 12.0572 74.9647 12.0572H75.0471H78.9176V51.0217C78.9176 51.328 79.1647 51.5576 79.4941 51.5576C79.8235 51.5576 80.0706 51.328 80.0706 51.0217V12.0572H83.6941V35.4819C83.6941 35.7115 83.8588 35.9412 84.1059 36.0177C84.1882 36.0177 84.2706 36.0177 84.3529 36.0177C84.6823 36.0177 84.9294 35.7881 84.9294 35.4819V12.0572H93.1647H93.2471C93.2471 12.0572 93.2471 12.0572 93.3294 12.0572V21.473V30.3529Z" fill="#6750A4"/>
<path d="M89.1294 41.8356C88.8 41.8356 88.5529 42.0653 88.5529 42.3715C88.5529 42.3715 88.5529 42.3715 88.5529 42.448V66.5617C88.5529 66.8679 88.8 67.0975 89.1294 67.0975C89.4588 67.0975 89.7059 66.8679 89.7059 66.5617V42.448C89.7882 42.1418 89.4588 41.8356 89.1294 41.8356Z" fill="#6750A4"/>
<path d="M125.859 9.14825C124.953 9.14825 124.212 9.68411 123.882 10.3731C123.8 10.3731 123.8 10.3731 123.718 10.3731C123.635 10.3731 123.553 10.3731 123.553 10.3731H105.435C105.353 10.3731 105.271 10.3731 105.271 10.3731C105.188 10.3731 105.188 10.3731 105.106 10.3731C104.776 9.68411 103.953 9.14825 103.129 9.14825C101.894 9.14825 100.906 10.0669 100.906 11.2151V99.7848C100.906 100.933 101.894 101.852 103.129 101.852C104.035 101.852 104.776 101.316 105.106 100.627C105.188 100.627 105.188 100.627 105.271 100.627C105.353 100.627 105.435 100.627 105.435 100.627H123.553C123.635 100.627 123.718 100.627 123.718 100.627C123.8 100.627 123.8 100.627 123.882 100.627C124.212 101.316 125.035 101.852 125.859 101.852C127.094 101.852 128.082 100.933 128.082 99.7848V89.4504V80.5705V30.3529V21.473V11.2151C128 10.0669 127.094 9.14825 125.859 9.14825ZM123.635 30.3529V80.5705V89.4504V98.8662C123.635 98.8662 123.635 98.8662 123.553 98.8662H123.471H120.012V82.2546C120.012 81.9484 119.765 81.7188 119.435 81.7188C119.106 81.7188 118.859 81.9484 118.859 82.2546C118.859 82.2546 118.859 82.2546 118.859 82.3312V99.0193H115.235V68.552C115.235 68.2458 114.988 68.0161 114.659 68.0161C114.576 68.0161 114.494 68.0161 114.412 68.0161C114.165 68.0927 114 68.2458 114 68.4754C114 68.4754 114 68.4754 114 68.552V98.9428H105.353H105.271C105.271 98.9428 105.271 98.9428 105.188 98.9428V89.527V80.5705V30.3529V21.473V12.0572C105.188 12.0572 105.188 12.0572 105.271 12.0572H105.353H109.224V51.0217C109.224 51.328 109.471 51.5576 109.8 51.5576C110.129 51.5576 110.376 51.328 110.376 51.0217V12.0572H114V35.4819C114 35.7115 114.165 35.9412 114.412 36.0177C114.494 36.0177 114.576 36.0177 114.659 36.0177C114.988 36.0177 115.235 35.7881 115.235 35.4819V12.0572H123.471H123.553C123.553 12.0572 123.553 12.0572 123.635 12.0572V21.473V30.3529Z" fill="#6750A4"/>
<path d="M119.435 41.8356C119.106 41.8356 118.859 42.0653 118.859 42.3715C118.859 42.3715 118.859 42.3715 118.859 42.448V66.5617C118.859 66.8679 119.106 67.0975 119.435 67.0975C119.765 67.0975 120.012 66.8679 120.012 66.5617V42.448C120.094 42.1418 119.847 41.8356 119.435 41.8356Z" fill="#6750A4"/>
</g>
<path d="M227.817 102.713C227.074 102.713 226.378 102.554 225.727 102.235C225.108 101.884 224.799 101.39 224.799 100.753V69.6759C224.799 69.0066 225.108 68.5285 225.727 68.2416C226.378 67.9229 227.074 67.7635 227.817 67.7635C228.591 67.7635 229.288 67.9229 229.907 68.2416C230.527 68.5285 230.836 69.0066 230.836 69.6759V82.7283L240.914 68.6719C241.317 68.0663 241.859 67.7635 242.54 67.7635C243.066 67.7635 243.593 67.9229 244.119 68.2416C244.676 68.5603 245.141 68.9588 245.512 69.4369C245.884 69.915 246.07 70.4249 246.07 70.9668C246.07 71.1262 246.039 71.3174 245.977 71.5405C245.915 71.7637 245.806 71.9708 245.652 72.1621L237.385 82.8717L247.509 98.7449C247.726 99.0955 247.834 99.462 247.834 99.8445C247.834 100.354 247.649 100.849 247.277 101.327C246.937 101.805 246.488 102.203 245.93 102.522C245.373 102.809 244.8 102.952 244.212 102.952C243.778 102.952 243.376 102.857 243.004 102.665C242.664 102.474 242.354 102.171 242.075 101.757L233.344 88.1309L230.836 91.382V100.753C230.836 101.39 230.527 101.884 229.907 102.235C229.288 102.554 228.591 102.713 227.817 102.713Z" fill="#6750A4"/>
<path d="M206.349 103C204.306 103 202.464 102.649 200.823 101.948C199.182 101.215 197.881 100.052 196.921 98.458C195.962 96.8324 195.482 94.6969 195.482 92.0513V78.7121C195.482 76.0666 195.962 73.947 196.921 72.3533C197.881 70.7277 199.166 69.5644 200.776 68.8631C202.417 68.13 204.275 67.7635 206.349 67.7635C208.393 67.7635 210.235 68.13 211.876 68.8631C213.548 69.5644 214.864 70.7277 215.824 72.3533C216.784 73.947 217.264 76.0666 217.264 78.7121V92.0513C217.264 94.6969 216.784 96.8324 215.824 98.458C214.864 100.052 213.548 101.215 211.876 101.948C210.235 102.649 208.393 103 206.349 103ZM206.349 97.5496C207.867 97.5496 209.059 97.1034 209.926 96.2109C210.793 95.3184 211.226 93.9319 211.226 92.0513V78.7121C211.226 76.8316 210.793 75.4451 209.926 74.5526C209.059 73.6601 207.867 73.2139 206.349 73.2139C204.832 73.2139 203.64 73.6601 202.773 74.5526C201.906 75.4451 201.473 76.8316 201.473 78.7121V92.0513C201.473 93.9319 201.906 95.3184 202.773 96.2109C203.64 97.1034 204.832 97.5496 206.349 97.5496Z" fill="#6750A4"/>
<path d="M177.36 103C175.316 103 173.474 102.649 171.833 101.948C170.192 101.215 168.891 100.052 167.932 98.458C166.972 96.8324 166.492 94.6969 166.492 92.0513V78.7121C166.492 76.0666 166.972 73.947 167.932 72.3533C168.891 70.7277 170.176 69.5644 171.786 68.8631C173.427 68.13 175.285 67.7635 177.36 67.7635C179.403 67.7635 181.245 68.13 182.886 68.8631C184.558 69.5644 185.874 70.7277 186.834 72.3533C187.794 73.947 188.274 76.0666 188.274 78.7121V92.0513C188.274 94.6969 187.794 96.8324 186.834 98.458C185.874 100.052 184.558 101.215 182.886 101.948C181.245 102.649 179.403 103 177.36 103ZM177.36 97.5496C178.877 97.5496 180.069 97.1034 180.936 96.2109C181.803 95.3184 182.236 93.9319 182.236 92.0513V78.7121C182.236 76.8316 181.803 75.4451 180.936 74.5526C180.069 73.6601 178.877 73.2139 177.36 73.2139C175.842 73.2139 174.65 73.6601 173.783 74.5526C172.916 75.4451 172.483 76.8316 172.483 78.7121V92.0513C172.483 93.9319 172.916 95.3184 173.783 96.2109C174.65 97.1034 175.842 97.5496 177.36 97.5496Z" fill="#6750A4"/>
<path d="M141.062 102.713C140.257 102.713 139.607 102.522 139.111 102.139C138.647 101.757 138.415 101.311 138.415 100.801V69.7237C138.415 69.0862 138.693 68.6081 139.251 68.2894C139.808 67.9388 140.412 67.7635 141.062 67.7635H150.072C151.651 67.7635 153.153 68.0025 154.577 68.4806C156.001 68.9269 157.162 69.7556 158.06 70.9668C158.958 72.178 159.407 73.9151 159.407 76.1782C159.407 78.1225 159.051 79.748 158.339 81.0549C157.627 82.3298 156.667 83.2382 155.46 83.7801C156.419 84.1307 157.255 84.6247 157.967 85.2622C158.68 85.8678 159.237 86.6806 159.639 87.7006C160.042 88.6887 160.243 89.9796 160.243 91.5732V92.5773C160.243 95.0634 159.825 97.0555 158.989 98.5536C158.184 100.02 157.07 101.088 155.645 101.757C154.252 102.394 152.688 102.713 150.954 102.713H141.062ZM144.406 97.2627H149.654C151.078 97.2627 152.193 96.8484 152.998 96.0196C153.803 95.1909 154.206 93.8682 154.206 92.0513V91.2864C154.206 89.4058 153.803 88.099 152.998 87.3659C152.193 86.6009 151.078 86.2184 149.654 86.2184H144.406V97.2627ZM144.406 81.3417H149.654C150.924 81.3417 151.852 80.9593 152.441 80.1943C153.06 79.4293 153.37 78.4412 153.37 77.23C153.37 76.3694 153.215 75.6523 152.905 75.0785C152.595 74.4729 152.162 74.0108 151.605 73.692C151.047 73.3733 150.382 73.2139 149.608 73.2139H144.406V81.3417Z" fill="#6750A4"/>
<path d="M244.238 43.1887C243.836 43.1887 243.433 43.0612 243.031 42.8062C242.659 42.5512 242.365 42.1847 242.148 41.7066L235.553 28.5108H231.652V40.9894C231.652 41.6269 231.342 42.1209 230.723 42.4716C230.104 42.7903 229.407 42.9497 228.633 42.9497C227.89 42.9497 227.193 42.7903 226.543 42.4716C225.924 42.1209 225.614 41.6269 225.614 40.9894V9.91243C225.614 9.40245 225.785 8.95621 226.125 8.57373C226.497 8.19124 226.977 8 227.565 8H236.761C238.804 8 240.646 8.3028 242.287 8.9084C243.959 9.51401 245.291 10.5499 246.282 12.0161C247.272 13.4504 247.768 15.4425 247.768 17.9924C247.768 19.8411 247.505 21.4189 246.978 22.7257C246.452 24.0007 245.724 25.0366 244.795 25.8334C243.897 26.5984 242.86 27.1721 241.684 27.5546L247.814 39.1726C247.876 39.3001 247.923 39.4435 247.954 39.6029C247.985 39.7304 248 39.842 248 39.9376C248 40.4476 247.814 40.9576 247.443 41.4675C247.071 41.9775 246.591 42.3919 246.003 42.7106C245.446 43.0293 244.857 43.1887 244.238 43.1887ZM231.652 23.6341H236.761C238.278 23.6341 239.485 23.2516 240.383 22.4867C241.281 21.7217 241.73 20.4149 241.73 18.5662C241.73 16.6537 241.281 15.331 240.383 14.5979C239.485 13.8329 238.278 13.4504 236.761 13.4504H231.652V23.6341Z" fill="#6750A4"/>
<path d="M206.723 43.2365C204.618 43.2365 202.729 42.8859 201.057 42.1847C199.385 41.4516 198.054 40.2882 197.063 38.6945C196.072 37.0689 195.577 34.9334 195.577 32.2879V9.91243C195.577 9.24308 195.887 8.76497 196.506 8.47811C197.125 8.15937 197.822 8 198.596 8C199.339 8 200.02 8.15937 200.639 8.47811C201.29 8.76497 201.615 9.24308 201.615 9.91243V32.2879C201.615 34.1365 202.064 35.5231 202.962 36.4474C203.859 37.3399 205.113 37.7861 206.723 37.7861C208.303 37.7861 209.541 37.3399 210.439 36.4474C211.368 35.5231 211.832 34.1365 211.832 32.2879V9.91243C211.832 9.24308 212.126 8.76497 212.715 8.47811C213.334 8.15937 214.046 8 214.851 8C215.594 8 216.275 8.15937 216.895 8.47811C217.545 8.76497 217.87 9.24308 217.87 9.91243V32.2879C217.87 34.9334 217.374 37.0689 216.384 38.6945C215.393 40.2882 214.046 41.4516 212.343 42.1847C210.671 42.8859 208.798 43.2365 206.723 43.2365Z" fill="#6750A4"/>
<path d="M177.269 43.2365C175.226 43.2365 173.383 42.8859 171.742 42.1847C170.101 41.4516 168.801 40.2882 167.841 38.6945C166.881 37.0689 166.401 34.9334 166.401 32.2879V18.9487C166.401 16.3031 166.881 14.1835 167.841 12.5898C168.801 10.9643 170.086 9.80087 171.696 9.09965C173.337 8.36655 175.195 8 177.269 8C179.313 8 181.155 8.36655 182.796 9.09965C184.468 9.80087 185.784 10.9643 186.743 12.5898C187.703 14.1835 188.183 16.3031 188.183 18.9487V32.2879C188.183 34.9334 187.703 37.0689 186.743 38.6945C185.784 40.2882 184.468 41.4516 182.796 42.1847C181.155 42.8859 179.313 43.2365 177.269 43.2365ZM177.269 37.7861C178.786 37.7861 179.978 37.3399 180.845 36.4474C181.712 35.5549 182.146 34.1684 182.146 32.2879V18.9487C182.146 17.0681 181.712 15.6816 180.845 14.7891C179.978 13.8967 178.786 13.4504 177.269 13.4504C175.752 13.4504 174.56 13.8967 173.693 14.7891C172.826 15.6816 172.392 17.0681 172.392 18.9487V32.2879C172.392 34.1684 172.826 35.5549 173.693 36.4474C174.56 37.3399 175.752 37.7861 177.269 37.7861Z" fill="#6750A4"/>
<path d="M148.911 42.9497C148.168 42.9497 147.472 42.7903 146.821 42.4716C146.202 42.1209 145.892 41.6269 145.892 40.9894V28.9411C145.892 28.718 145.846 28.5108 145.753 28.3196L136.139 11.2033C136.077 11.0758 136.031 10.9643 136 10.8686C136 10.7411 136 10.6455 136 10.5818C136 10.0718 136.217 9.62556 136.65 9.24308C137.084 8.86059 137.61 8.55779 138.229 8.33467C138.849 8.11156 139.437 8 139.994 8C140.49 8 140.861 8.11156 141.109 8.33467C141.356 8.52592 141.589 8.82872 141.805 9.24308L148.911 23.0604L155.971 9.24308C156.218 8.82872 156.466 8.52592 156.714 8.33467C156.961 8.11156 157.333 8 157.828 8C158.386 8 158.958 8.11156 159.547 8.33467C160.166 8.55779 160.692 8.86059 161.126 9.24308C161.59 9.62556 161.823 10.0718 161.823 10.5818C161.823 10.6455 161.807 10.7411 161.776 10.8686C161.776 10.9643 161.745 11.0758 161.683 11.2033L152.069 28.3196C151.977 28.5108 151.93 28.718 151.93 28.9411V40.9894C151.93 41.6269 151.605 42.1209 150.955 42.4716C150.336 42.7903 149.654 42.9497 148.911 42.9497Z" fill="#6750A4"/>
<defs>
<clipPath id="clip0_44_22754">
<rect width="112" height="95" fill="white" transform="translate(16 8)"/>
</clipPath>
</defs>
</svg>
