<svg width="20" height="20" viewBox="0 0 20 20" fill="none" xmlns="http://www.w3.org/2000/svg">
<g id="Icons/person_outline_24px">
<path id="icon" fill-rule="evenodd" clip-rule="evenodd" d="M10 3.33337C8.15833 3.33337 6.66667 4.82504 6.66667 6.66671C6.66667 8.50837 8.15833 10 10 10C11.8417 10 13.3333 8.50837 13.3333 6.66671C13.3333 4.82504 11.8417 3.33337 10 3.33337ZM11.6667 6.66671C11.6667 5.75004 10.9167 5.00004 10 5.00004C9.08333 5.00004 8.33333 5.75004 8.33333 6.66671C8.33333 7.58337 9.08333 8.33337 10 8.33337C10.9167 8.33337 11.6667 7.58337 11.6667 6.66671ZM15 14.1667C14.8333 13.575 12.25 12.5 10 12.5C7.75 12.5 5.16667 13.575 5 14.175V15H15V14.1667ZM3.33333 14.1667C3.33333 11.95 7.775 10.8334 10 10.8334C12.225 10.8334 16.6667 11.95 16.6667 14.1667V16.6667H3.33333V14.1667Z" fill="#6B6B6B"/>
</g>
</svg>
