<svg width="20" height="20" viewBox="0 0 20 20" fill="none" xmlns="http://www.w3.org/2000/svg">
<g id="Icons/access_time_24px">
<path id="icon" fill-rule="evenodd" clip-rule="evenodd" d="M9.99167 1.66663C5.39167 1.66663 1.66667 5.39996 1.66667 9.99996C1.66667 14.6 5.39167 18.3333 9.99167 18.3333C14.6 18.3333 18.3333 14.6 18.3333 9.99996C18.3333 5.39996 14.6 1.66663 9.99167 1.66663ZM10 16.6666C6.31667 16.6666 3.33333 13.6833 3.33333 9.99996C3.33333 6.31663 6.31667 3.33329 10 3.33329C13.6833 3.33329 16.6667 6.31663 16.6667 9.99996C16.6667 13.6833 13.6833 16.6666 10 16.6666ZM9.16667 10.8916L13.7417 13.6333L14.5917 12.2L10.8333 9.94163V5.34996H9.16667V10.8916Z" fill="#6B6B6B"/>
</g>
</svg>
